/* XPM */
static const char *bGFuZF8yXzcweDcw[] = {
/* columns rows colors chars-per-pixel */
"40 40 169 2 ",
"   c #7ED6EC",
".  c #7ECFFA",
"X  c #74D6F4",
"o  c #7CD4F5",
"O  c #76D8F1",
"+  c #7FDBF5",
"@  c #76D4FE",
"#  c #7CD5FD",
"$  c #75DBFE",
"%  c #7CDBFD",
"&  c #7BE2FE",
"*  c #89D5ED",
"=  c #86D9EE",
"-  c #90D8EE",
";  c #8CCFFF",
":  c #84D5F4",
">  c #8AD6F5",
",  c #83DAF5",
"<  c #8BDAF5",
"1  c #84D6FD",
"2  c #8AD5FC",
"3  c #85D9FE",
"4  c #8ADAFD",
"5  c #9AD6F2",
"6  c #94DCF4",
"7  c #9BDCF2",
"8  c #93DDFD",
"9  c #9ADCFB",
"0  c #A3DDF6",
"q  c #A9DCF7",
"w  c #AADEFF",
"e  c #86E1FD",
"r  c #8BE1FF",
"t  c #94E1F6",
"y  c #9CE1F6",
"u  c #93E1FD",
"i  c #9DE2FE",
"p  c #9FE9FF",
"a  c #B1E3EE",
"s  c #B8EBEF",
"d  c #A5E1F3",
"f  c #A9E4F5",
"g  c #A4E3FC",
"h  c #ADE5FD",
"j  c #A3EAFD",
"k  c #ACEAFE",
"l  c #B4E3F4",
"z  c #BCE4F4",
"x  c #B2E9F3",
"c  c #BDEAF6",
"v  c #B3E5FC",
"b  c #BBE6FC",
"n  c #B3E9FC",
"m  c #BBEBFD",
"M  c #B6F3F6",
"N  c #C1E2F3",
"B  c #C2EAF5",
"V  c #CAE8F2",
"C  c #C1E5FC",
"Z  c #C4EBFD",
"A  c #CCEDFC",
"S  c #D7EEFE",
"D  c #C4F3FE",
"F  c #CDF1FC",
"G  c #DAF8F6",
"H  c #DCF4FD",
"J  c #DEFCFF",
"K  c #F6FAEB",
"L  c #EDF6F7",
"P  c #EAFAF5",
"I  c #E4F1FC",
"U  c #EBF5FB",
"Y  c #E4F9FC",
"T  c #ECFCFC",
"R  c #F2F3F7",
"E  c #F0FFF5",
"W  c #F3FDF4",
"Q  c #F5FCF6",
"!  c #FDFFF3",
"~  c #FFFFF3",
"^  c #FEFAF7",
"/  c #FFFAF7",
"(  c #F8FDF7",
")  c #FBFEF7",
"_  c #FFFDF4",
"`  c #FCFFF4",
"'  c #FFFDF6",
"]  c #FFFDF7",
"[  c #FEFFF6",
"{  c #FFFFF6",
"}  c #FDFDF5",
"|  c #FFF5FA",
" . c #F8F7FF",
".. c #FFF7FC",
"X. c #FFF4FD",
"o. c #F7F9F8",
"O. c #F7FDF9",
"+. c #F0FAFC",
"@. c #F5F9FF",
"#. c #F7FBFF",
"$. c azure",
"%. c #F1FFFF",
"&. c #F3FFFF",
"*. c #F4FDFC",
"=. c #F5FDFF",
"-. c #F5FFFF",
";. c #F6FFFF",
":. c #F7FFFF",
">. c #F6FCFC",
",. c #F4FEFE",
"<. c #F9FBF8",
"1. c gray98",
"2. c #FDF9FA",
"3. c #FFFBFB",
"4. c #F9FEF8",
"5. c #F8FFF8",
"6. c #FBFFF9",
"7. c #F8FEFA",
"8. c #F9FEFA",
"9. c #FBFFFA",
"0. c #FAFFFB",
"q. c #FBFFFB",
"w. c #FCFDF8",
"e. c #FEFDF8",
"r. c #FFFDF8",
"t. c #FFFCF9",
"y. c #FCFFF8",
"u. c #FFFFF8",
"i. c #FEFFF9",
"p. c #FDFCFA",
"a. c #FFFCFA",
"s. c #FFFCFB",
"d. c #FFFDFB",
"f. c #FEFFFA",
"g. c #FFFFFA",
"h. c #FFFEFB",
"j. c #FFFFFB",
"k. c #FAFBFD",
"l. c #FAF9FF",
"z. c #FAFBFF",
"x. c #FFFBFC",
"c. c #FFF8FE",
"v. c #FCFBFF",
"b. c #FFFBFF",
"n. c #F9FDFC",
"m. c #F8FCFD",
"M. c #FAFEFD",
"N. c #F9FDFE",
"B. c #F8FFFE",
"V. c #F9FEFF",
"C. c #F8FFFF",
"Z. c #F9FFFF",
"A. c #FAFFFF",
"S. c #FBFFFF",
"D. c #FFFDFC",
"F. c #FEFCFD",
"G. c #FFFEFD",
"H. c #FCFCFF",
"J. c #FCFDFF",
"K. c #FDFDFF",
"L. c #FFFCFF",
"P. c #FEFDFF",
"I. c #FFFDFF",
"U. c #FCFFFF",
"Y. c #FEFEFE",
"T. c #FFFEFF",
"R. c #FEFFFF",
"E. c white",
"W. c #FDFDFC",
/* pixels */
"T.%.m._ _ %.b.b.:.T.T.:.T...I Z d 6 r % 3 < 6 g V H :.T.T.k.b.T.a.:.%.a.a.:.:.a.",
"T.b.T.9.b.T.m.W ^ a.^ P M u 1 : # 1 % 3 3 3 1 # $ % t B P ! 9.%.Q T.T.9._ a.T.:.",
"T.a.a.m.T.T.W _ m.@.s , @ % & % 4 9 6 0 k j h 7 < 3 % # 4 b Y _ a.( T.T.9._ a.m.",
"T.9.a.T.:.9.a.b.c u # 2 4 3 8 f j n f v h j v l n 9 > 3 # . 0 F m.( a.T.m.9._ a.",
"m.1.T.m.W _ @.b 3 + 1 2 9 d v h c A Z F Z k g j 8 4 3 3 , < 3 # n  ._ P T.T.( a.",
"k.T.m.m.a.L f % 2 1 e j b v m H m.T.a.a.L F - % : + % % % 1 1 4 1 h L _ a.T.T.:.",
"T.T.O.a.@.v O % 1 i v k j F o.a.3.:.| _ a.T t % 3 < < > 3 r 4 1 1 X v k.( 9.T.m.",
"m.Q a.9.x 1 1 < j h v c I b.T.:.! T T.:.m.T.7 1 3 1 1 4 4 : 1 3 + 1 1 n T.3.1.a.",
"O...T.m o < 3 h h k v J k.3.T.%.O.X.b.:.b.U 6 $ 3 3 3 3 3 3 3 3 3 1 4 % Z a.T.b.",
"m.3.@.6 4 : i k n l F %.a.! ( m.@.T.9.W m.c = 2 3 3 3 3 3 3 3 3 1 1 1 3 u U a.T.",
"m.T.z O 3 9 l k k z @.b.^ T.b.b.m.W K a.T 6 , 2 3 3 3 3 3 3 3 3 3 1 3 , $ C ^ :.",
"T.T , 3 3 n l k h C :.a.O.:.%.:.3._ _ @.q 1 4 % 3 3 3 3 3 3 3 3 3 % 4 % $ 8 R :.",
"T.z $ 3 i v l h g a G E T.T.T.a.a.m.S g % 1 ; 3 3 3 3 3 3 3 3 3 1 = 3 1 3 # Z 9.",
"m.6 $ u h k v v k k n Z H I U U F d 8 1 & 3 2 1 3 3 3 3 3 3 3 3 1 < $ 2 4 # y o.",
"H , 1 i h k h h v h 4 : : < , , : X e 1 : 3 r % 3 3 3 3 3 3 3 3 1 4 % 4 4 1 3 H ",
"Z : < w k l k h x g 2 1 3 3 o 4 3 4 1 < < 4 1 3 3 3 3 3 3 3 3 3 3 # 4 % 4 1 1 Z ",
"g % 4 k b h h n p 8 2 3 3 3 3 4 3 3 3 3 3 3 3 3 3 3 3 3 3 3 3 3 3 3 3 3 3 3 : i ",
"9 # 4 n v h v v u 4 1 1 3 3 3 3 3 3 3 3 3 3 3 3 3 3 3 3 3 3 3 3 3 3 3 3 3 3 : 8 ",
"4 1 9 n h h v k 4 < 1 3 3 3 3 1 3 3 3 3 3 3 3 3 3 3 3 3 3 3 3 3 3 3 3 3 3 3 1 4 ",
"3 3 y h k h h g 1 3 3 3 3 3 3 1 3 3 3 3 3 3 3 3 3 3 3 3 3 3 3 3 3 1 4 < 3 3 3 3 ",
"3 3 y h k h h 8 3 3 3 3 3 3 3 3 3 3 3 3 3 3 3 3 3 3 3 3 3 3 3 3 3 1 4 < 3 3 3 3 ",
"< # 8 h n k g < 3 3 3 3 3 3 3 3 3 3 3 3 3 3 3 3 3 3 3 3 3 3 3 3 3 3 3 3 3 3 1 4 ",
"7 # 3 h n h i 3 3 3 3 3 3 3 3 3 3 3 3 3 3 3 3 3 3 3 3 3 3 3 3 3 3 3 3 3 3 3 : 8 ",
"f % % g l h i 1 3 3 3 3 3 3 3 3 3 3 3 3 3 3 3 3 3 3 3 3 3 3 3 3 3 3 3 3 3 3 : i ",
"m   r 2 g k 3 : 3 3 3 3 3 3 3 3 3 3 3 3 3 3 3 3 3 3 3 3 3 3 3 3 3 # 4 1 2 3 # Z ",
"H : 3 > 8 8 3 1 3 3 3 3 3 3 3 3 3 3 3 3 3 3 3 3 3 3 3 3 3 3 3 3 3 3 3 3 2 % 1 H ",
"k.9 @ > < # < 3 3 3 3 3 3 3 3 3 3 3 3 3 3 3 3 3 3 3 3 3 3 3 3 3 3 < # 4 < @ 9 5.",
"a.Z @ 4 3 % > 3 3 3 3 3 3 3 3 3 3 3 3 3 3 3 3 3 3 3 3 3 3 3 3 3 1 < 3 2 3 @ Z a.",
":.P 6 % 3 4 < 3 3 3 3 3 3 3 3 3 3 3 3 3 3 3 3 3 3 3 3 3 3 3 3 3 3 , 4 1 $ 4 L :.",
"%.! z $ 1 4 4 1 3 3 3 3 3 3 3 3 3 3 3 3 3 3 3 3 3 3 3 3 3 3 3 3 3 3 2 3 $ m _ :.",
":.a.L y 1 2 3 3 3 3 3 3 3 3 3 3 3 3 3 3 3 3 3 3 3 3 3 3 3 3 3 3 3 1 2 3 9 T _ m.",
"9.b.a.D 1 3 % 3 3 3 3 3 3 3 3 3 3 3 3 3 3 3 3 3 3 3 3 3 3 3 3 3 , 1 8 , c a.T.3.",
"a.Q a.m.n 3 2 , 3 3 3 3 3 3 3 3 1 3 3 3 3 3 3 1 3 1 1 4 3 3 3 1 < % 3 b T.a.( a.",
":.T.9.( k.h X 2 1 3 % 3 * 6 4 1 3 3 1 1 1 1 3 3 # 3 < = : 3 3 4 $ : v T _ 3.T.m.",
":.T.T.a._ L h 1 u 1 1 3 3 1 1 4 3 3 3 4 4 4 3 3 r 1 % 3 4 1 1 < % l L _ a.T.T.:.",
"a.( T.T.T _ k.h o < 8 4 1 3 3 % 3 3 1 1 1 1 3 3 o 1 3 3 3 4 3 # b T _ Q :.T.3.T.",
"a._ T.m.T.a.( m.Z 9 @ $ % 3 3 4 3 3 3 3 3 3 3 3 4 2 2 3 $ X y D m._ _ m.m.a.a.T.",
":.a._ 9.T.T.5.a._ Y n 4 # 3 3 o 3 3 3 3 3 3 3 3 1 3 % # 8 b L ! a.( m.T.3._ T.T.",
"m.T.3.! a.T.T.( 9._ a.L N 5 < 3 > : 1 3 3 1 : > + : 7 B L 3.b.T.3.T.m.a._ a.T.T.",
"a.:.m.a.a.:.m.a.b.T.m.m.9.%.H B i 8 4 1 1 4 8 g Z H :.a.:.%.m.3.T.T.m.a.a.T.T.a."
};
