/* XPM */
static const char *c2VhZmxvb3JfMl83MHg3MA__[] = {
/* columns rows colors chars-per-pixel */
"40 40 189 2 ",
"   c #1E0F0A",
".  c #1F100C",
"X  c #220F0B",
"o  c #280F0B",
"O  c #340F09",
"+  c #221703",
"@  c #22100C",
"#  c #2A140D",
"$  c #26180F",
"%  c #2B190F",
"&  c #321D0F",
"*  c #261211",
"=  c #2C1613",
"-  c #2C1B14",
";  c #2D1D19",
":  c #351111",
">  c #331C16",
",  c #3C1E15",
"<  c #341B19",
"1  c #3A1D19",
"2  c #2C2016",
"3  c #2D201A",
"4  c #222313",
"5  c #322016",
"6  c #3D2115",
"7  c #37201A",
"8  c #3C221A",
"9  c #142F36",
"0  c #1E2E3E",
"q  c #00353E",
"w  c #0F353E",
"e  c #0C3A3D",
"r  c #14343C",
"t  c #1B353D",
"y  c #153A3B",
"u  c #1B3B3D",
"i  c #1B3A35",
"p  c #2F2023",
"a  c #2A3A2F",
"s  c #203F37",
"d  c #22353D",
"f  c #2A343C",
"g  c #233B3C",
"h  c #2D3D33",
"j  c #303634",
"k  c #30373F",
"l  c #3D343C",
"z  c #323B3B",
"x  c #393C39",
"c  c #451D16",
"v  c #4C1E15",
"b  c #461E1A",
"n  c #4C1E18",
"m  c #501E15",
"M  c #432217",
"N  c #4C2415",
"B  c #45221A",
"V  c #4B221A",
"C  c #522215",
"Z  c #5A2B17",
"A  c #52231B",
"S  c #562A1F",
"D  c #5A291C",
"F  c #622715",
"G  c #602811",
"H  c #682B16",
"J  c #662D1E",
"K  c #6D2D1C",
"L  c #752E1C",
"P  c #6C321E",
"I  c #73341C",
"U  c #79371C",
"Y  c #743C1E",
"T  c #7C391E",
"R  c #552F26",
"E  c #5E2C22",
"W  c #433C2C",
"Q  c #553125",
"!  c #52332A",
"~  c #573C2D",
"^  c #413C36",
"/  c #433B3C",
"(  c #5E3730",
")  c #533C33",
"_  c #5C3C34",
"`  c #632F24",
"'  c #643324",
"]  c #6C3322",
"[  c #673A27",
"{  c #6B3822",
"}  c #62312A",
"|  c #6C3E2F",
" . c #723322",
".. c #7B3221",
"X. c #713A25",
"o. c #7E3B24",
"O. c #7D3F28",
"+. c #693D34",
"@. c #444233",
"#. c #724027",
"$. c #7E4226",
"%. c #7C412A",
"&. c #0C2D4E",
"*. c #172F47",
"=. c #1F2F46",
"-. c #1B2E4C",
";. c #0B3445",
":. c #033F40",
">. c #0C3B42",
",. c #0D334D",
"<. c #153543",
"1. c #1C3643",
"2. c #143A43",
"3. c #1B3A43",
"4. c #13354B",
"5. c #1C344A",
"6. c #133B4C",
"7. c #1B394A",
"8. c #1C2B54",
"9. c #1A3451",
"0. c #17345C",
"q. c #2E2F45",
"w. c #223645",
"e. c #253645",
"r. c #223443",
"t. c #283545",
"y. c #213945",
"u. c #243A42",
"i. c #2A3940",
"p. c #213549",
"a. c #26324D",
"s. c #23324C",
"d. c #29334C",
"f. c #194149",
"g. c #4A4144",
"h. c #883F16",
"j. c #803B1E",
"k. c #8B3A1C",
"l. c #9A3815",
"z. c #923E1C",
"x. c #9B3C1E",
"c. c #A33C1F",
"v. c #AE3D1F",
"b. c #B83D1B",
"n. c #833D24",
"m. c #8B3D23",
"M. c #88362B",
"N. c #803D2C",
"B. c #8D3E2C",
"V. c #933D22",
"C. c #9A3D23",
"Z. c #933C2E",
"A. c #9C3B28",
"S. c #8C3D36",
"D. c #A33E21",
"F. c #AE3D2D",
"G. c #B63D25",
"H. c #B33C26",
"J. c #C03F20",
"K. c #8B4217",
"L. c #8C411B",
"P. c #8F481E",
"I. c #924216",
"U. c #9D4017",
"Y. c #94421D",
"T. c #9B411C",
"R. c #A04115",
"E. c #A54519",
"W. c #AC441F",
"Q. c #A1491B",
"!. c #BB4517",
"~. c #B04C1A",
"^. c #864120",
"/. c #8D4323",
"(. c #8B412B",
"). c #81432A",
"_. c #934325",
"`. c #994224",
"'. c #9D4927",
"]. c #934328",
"[. c #844131",
"{. c #9F4837",
"}. c #A54423",
"|. c #AB4324",
" X c #AC4A27",
".X c #A64629",
"XX c #A2482E",
"oX c #BA4420",
"OX c #863A44",
/* pixels */
"1.1.1.1.1.1.1.1.1.1.1.1.1.1.1.1.1.1.1.1.1.1.1.1.1.1.1.1.1.1.1.1.1.1.1.1.1.1.1.1.",
"1.1.1.1.1.1.1.1.1.1.1.1.1.1.1.1.1.1.1.1.1.1.1.1.1.1.1.1.1.1.1.1.1.1.1.1.1.1.1.1.",
"1.1.1.1.1.1.1.1.1.1.1.1.1.1.1.1.1.1.1.1.1.1.1.1.1.1.1.1.1.1.1.1.1.1.1.1.1.1.1.1.",
"1.1.1.1.1.1.1.1.1.1.1.1.1.1.1.1.1.1.1.1.1.1.1.1.1.1.1.1.1.1.1.1.1.1.1.1.1.1.1.1.",
"1.1.1.1.1.1.1.1.1.1.1.1.1.1.1.1.1.1.1.1.1.1.1.1.1.1.1.1.1.1.1.1.1.1.1.1.1.1.1.1.",
"1.1.1.1.1.1.1.1.1.1.1.1.1.1.1.1.1.1.1.1.1.1.1.1.1.1.1.1.1.1.1.1.1.1.1.1.1.1.1.1.",
"1.1.1.1.1.1.1.1.1.1.1.1.1.1.1.1.1.1.1.1.1.1.1.1.1.1.1.1.1.1.1.1.1.1.1.1.1.1.1.1.",
"1.1.1.1.1.1.1.1.1.1.1.1.1.1.1.1.1.1.1.1.1.1.1.1.1.1.1.1.1.1.1.1.1.1.1.1.1.1.1.1.",
"d 1.<.1.3.1.3.3.1.1.<.<.r.w.3.t 1.1.1.1.1.1.1.1.1.1.1.1.1.1.1.1.1.1.1.1.1.1.1.1.",
"t 1.1.1.1.1.1.1.2.r.r.3.r.1.2.1.1.1.1.1.1.1.1.1.1.1.1.1.1.1.1.1.1.1.1.1.1.1.1.1.",
"1.1.1.r.r.r.1.1.2.r.1.2.1.r.1.p.1.1.1.1.1.1.1.1.1.1.1.1.1.1.1.1.1.1.1.1.1.1.1.1.",
"1.1.1.1.1.1.7.1.1.r.1.e 2.r.r.5.1.1.1.1.1.1.1.1.1.1.1.1.1.1.1.1.1.1.1.1.1.1.1.1.",
"5.1.d t 1.7.7.1.1.s.a.1.2.3.3.2.1.1.1.1.1.1.1.1.1.1.1.1.1.1.1.1.1.1.1.1.1.1.1.1.",
"5.1.d 1.7.2.r t e <.a.d.1.3.y.1.1.1.1.1.1.1.1.1.1.1.1.1.1.1.1.1.1.1.1.1.1.1.1.1.",
"1.y.t 1.7.1.t z z y <.d.1.t e.r.1.1.1.1.1.1.1.1.1.1.1.1.1.1.1.1.1.1.1.1.1.1.1.1.",
"1.y.t t 7.1.f g.OXj e 7.1.t 3.2.1.1.1.1.1.1.1.1.1.1.1.1.1.1.1.1.1.1.1.1.1.1.1.1.",
"1.1.1.7.<.t.l /.E.S.i.<.3.f.0 3.7.p.y r.p.4.r.3.r.1.d =.7.1.d 4.p.f <.g p.5.u 1.",
"1.1.<.d e.<.+.Y.U.W._ t 3.-.7.u w.2.r.t.5.t u p.;.2.<.f 5.u w r.y 0.s 2.9 y w.u ",
"1.w.t t r.z ].z.Y.Y.G.^ d u 7.t d <.3.e.1.y u *.i.1.u <.1.r.g ;./ | 1.d y.2.p.3.",
"5.r.g 4.<.%.Y.V.C.O.~.Z.t r.3.t r.r.3.<.t 3.7.t M.@.>.2.q.1.5.k ).G.Q 6.d.5.5.w.",
"5.t u.,.x }.h.].m.x.T.|./ &.g 3.r.3.1.2.g 5.6.) v.(.u.<.g 5.5.o.I.[.F.@.q q.t u ",
"r.r 9.u.%.V.L.].C.P.V.E.H.h :.8.7.3.1.e.r.;.d B./.A.Z.g e r.N.I.I.k.{.R.W 3.r 7.",
"1.<.1.~ `.m.`./._.V._.L.!.c.l w.7.1.3.t.5.i ' C.$.C.}.(.f #.Q.V.Y.D.l.'.b._ >.a.",
"3.9.a o.k.Y.`.K.m.k.K.A.m.XXF.Y 1.1.d 1.4.) T.].Y.z.c.|.!.C.m.(.(./.V._.|.J.( >.",
"! ! R S D J  . .{ { { Y T m.`..XB.x ,.;.) A.^.o.n.n.m.`..X|.c.x.].z.`..XD.|. XT.",
"E A V A C C Z '  . . .I I U U j.k.[ ) ~ X.k.U  .] ] I U n.m.m.n.J F K  .L ..o.I ",
"C v v v v V V V ] ] ] X.X.{ { { ] K P H G Z E } ` ' ' ' J J Z N V V V V v v v c ",
", M B B V A A n N N A D E E D D b n V B B B n C v v v v m A V V V V M 6 8 , 1 1 ",
"7 < , M B v v A 8 6 , c c c c c M > < < 1 b v C A V V A A V V B v B 6 > 7 7 1 7 ",
"< < < 1 1 6 6 6 7 , 1 1 8 1 1 7 & - 1 1 8 8 1 1 & & 6 B B c , , 1 1 > - - - - ; ",
"= > < - - < > # o o # - - - - - ; = - = - 2 < p > - - - > > > 5 - - ; ; - - ; 3 ",
"2 - $ $ # X X X @ .   . @ # = > = : 4 - > - O + o * * = > < < - - - - - # # % - ",
"@ @ @ @ @ @ @ @ @ @ @ @ @ @ @ @ @ @ @ @ @ @ @ @ X X X @ @ # # # X @ @ @ @ X @ @ ",
"@ @ @ @ @ @ @ @ @ @ @ @ @ @ @ @ @ @ @ @ @ @ @ @ @ @ @ @ @ @ @ @ @ @ @ @ @ @ @ @ ",
"@ @ @ @ @ @ @ @ @ @ @ @ @ @ @ @ @ @ @ @ @ @ @ @ @ @ @ @ @ @ X X @ @ @ @ @ @ @ @ ",
"@ @ @ @ @ @ @ @ @ @ @ @ @ @ @ @ @ @ @ @ @ @ @ @ @ @ @ @ @ @ @ @ @ @ X @ @ @ @ X ",
"@ @ @ @ @ @ @ @ @ @ @ @ @ @ @ @ @ @ @ @ @ @ @ @ X X @ @ @ @ @ @ @ @ X @ @ @ @ X ",
"@ @ @ @ @ @ @ @ @ @ @ @ @ @ @ @ @ @ @ @ @ @ @ @ @ @ @ @ @ @ @ @ @ @ @ @ @ @ @ @ ",
"@ @ @ @ @ @ @ @ @ @ @ @ @ @ @ @ @ @ @ @ @ @ @ @ @ @ @ @ @ @ X X @ @ @ @ @ @ @ @ ",
"@ @ @ @ @ @ @ @ @ @ @ @ @ @ @ @ @ @ @ @ @ @ @ @ X X @ @ @ @ @ @ X @ @ @ @ X @ @ "
};
