/* XPM */
static const char *U2hhcms1XzFfNzB4NzA_[] = {
/* columns rows colors chars-per-pixel */
"40 40 167 2 ",
"   c #00243D",
".  c #002E46",
"X  c #003047",
"o  c #00344B",
"O  c #00384F",
"+  c #023C52",
"@  c #0B3E53",
"#  c #003559",
"$  c #003D5A",
"%  c #0C4156",
"&  c #044158",
"*  c #0F455A",
"=  c #134056",
"-  c #13455A",
";  c #14485D",
":  c #18485D",
">  c #014665",
",  c #0C4B66",
"<  c #00476A",
"1  c #004C6C",
"2  c #154B60",
"3  c #1C4E62",
"4  c #1D5064",
"5  c #1F5368",
"6  c #075677",
"7  c #125571",
"8  c #165976",
"9  c #185F7B",
"0  c #204B60",
"q  c #215265",
"w  c #2B5366",
"e  c #25566A",
"r  c #2B5669",
"t  c #26586C",
"y  c #2D5B6D",
"u  c #345669",
"i  c #315B6D",
"p  c #395C6F",
"a  c #205B74",
"s  c #345F71",
"d  c #3A5E70",
"f  c #26627A",
"g  c #28607A",
"h  c #346375",
"j  c #3A6476",
"k  c #3D697A",
"l  c #486778",
"z  c #436C7C",
"x  c #4C6F7F",
"c  c #526F7F",
"v  c #46707F",
"b  c #1B6381",
"n  c #276D88",
"m  c #3B6E84",
"M  c #32728B",
"N  c #3C7388",
"B  c #3D7C95",
"V  c #477485",
"C  c #4C7584",
"Z  c #497A8E",
"A  c #557686",
"S  c #5A7786",
"D  c #527887",
"F  c #547B8A",
"G  c #597E8C",
"H  c #447E96",
"J  c #617F8E",
"K  c #548293",
"L  c #5D8290",
"P  c #50869E",
"I  c #618592",
"U  c #668996",
"Y  c #698A97",
"T  c #618B9B",
"R  c #6C8D9A",
"E  c #728F9B",
"W  c #75939E",
"Q  c #78939F",
"!  c #4F89A0",
"~  c #538BA0",
"^  c #598BA0",
"/  c #6E92A0",
"(  c #6095A9",
")  c #6995A8",
"_  c #7595A1",
"`  c #7C9AA5",
"'  c #7A9EAC",
"]  c #7AA3B3",
"[  c #839BA6",
"{  c #839FAA",
"}  c #85A1AC",
"|  c #8AA4AE",
" . c #8DA7B1",
".. c #8EA8B2",
"X. c #88AAB8",
"o. c #93ACB5",
"O. c #9BAEB7",
"+. c #98AFB8",
"@. c #97B0B8",
"#. c #9AB1BA",
"$. c #A2B6BE",
"%. c #A3B8BF",
"&. c #96B7C3",
"*. c #A5BAC2",
"=. c #AABEC5",
"-. c #ADC0C7",
";. c #AFC2C8",
":. c #B4C5CB",
">. c #BAC7CD",
",. c #BAC9CF",
"<. c #B0C7D0",
"1. c #B1CCD6",
"2. c #BCCCD2",
"3. c #BED1D7",
"4. c #B6D2DD",
"5. c #BAD3DD",
"6. c #C1CFD4",
"7. c #C4D2D6",
"8. c #C9D4D7",
"9. c #C6D4D9",
"0. c #C8D4D9",
"q. c #CDD9DD",
"w. c #D0DADE",
"e. c #CBDDE4",
"r. c #D3DDE1",
"t. c #CFE1E7",
"y. c #D7E0E3",
"u. c #DAE3E6",
"i. c #D7E4E9",
"p. c #DEE6E9",
"a. c #E0E7EA",
"s. c #E4EBED",
"d. c #E8EDEF",
"f. c #E7EFF2",
"g. c #EAEEF0",
"h. c #ECF2F3",
"j. c #F1F3F3",
"k. c #F0F3F5",
"l. c #F0F3F4",
"z. c #F1F4F5",
"x. c #F2F5F6",
"c. c #F3F6F7",
"v. c #F1F6F7",
"b. c #F1F4F6",
"n. c #F2F7F9",
"m. c #F5F7F8",
"M. c #F6F7F8",
"N. c #F7F9FA",
"B. c #F6F9FA",
"V. c #F5F9FA",
"C. c #F9FAFB",
"Z. c #FAFBFB",
"A. c #FAFBFC",
"S. c #F8FBFC",
"D. c #FBFCFC",
"F. c #FBFCFD",
"G. c #FCFCFD",
"H. c #FCFDFD",
"J. c #FDFDFD",
"K. c gray99",
"L. c #FDFDFE",
"P. c #FCFDFE",
"I. c #FDFEFE",
"U. c #FEFEFE",
"Y. c #FEFFFF",
"T. c white",
"R. c #FEFEFE",
/* pixels */
"f.&.T.T.T.T.T.T.T.T.T.T.T.T.T.T.T.T.T.T.T.T.T.T.T.T.T.T.T.T.T.T.T.T.T.T.T.T.T.T.",
"T.] i.T.T.T.T.T.T.T.T.T.T.T.T.T.T.T.T.T.T.T.T.T.T.T.T.T.T.T.T.T.T.T.T.T.T.T.T.T.",
"T.X.] T.F.T.T.T.T.T.T.T.T.T.T.T.T.T.T.T.T.T.T.T.T.T.T.T.T.T.T.T.T.T.T.T.T.T.T.T.",
"T.<.B T.T.T.T.T.T.T.T.T.T.T.T.T.T.T.T.T.T.T.T.T.T.T.T.T.T.T.T.T.T.T.T.T.T.T.T.T.",
"T.2.~ T.T.T.T.T.T.T.T.T.T.T.T.T.T.T.T.T.T.T.T.T.T.T.T.T.T.T.T.T.T.T.T.T.T.T.T.T.",
"T.9.M V.T.T.T.T.T.T.T.T.T.T.T.T.T.T.T.T.T.T.T.T.T.T.T.T.T.T.T.T.T.T.T.T.T.T.T.T.",
"T.9.8 f.T.T.T.T.T.T.T.T.T.T.T.T.T.T.T.T.T.T.T.T.T.T.T.T.T.T.T.T.T.T.T.T.T.T.T.T.",
"T.3.9 n.T.T.T.T.T.T.T.T.T.T.T.T.T.T.T.T.T.T.T.T.T.T.T.T.T.T.T.T.T.T.T.T.T.T.T.T.",
"T.q.n S.T.T.T.T.T.T.T.T.T.T.T.T.T.T.T.T.T.T.T.T.T.T.T.T.T.T.T.T.T.T.T.T.T.T.T.T.",
"T.*.b T.T.T.T.T.T.T.T.T.T.T.T.T.T.T.T.T.T.T.T.T.T.T.T.T.T.T.T.T.T.T.T.T.T.T.T.T.",
"T.' ^ T.T.T.T.T.T.T.T.T.T.T.T.T.T.T.T.T.T.T.T.T.T.T.T.T.T.T.T.T.T.T.T.T.T.T.T.T.",
"T.Z ) T.T.T.F.7.V.T.T.T.T.T.T.T.T.T.T.T.T.T.T.T.T.T.T.T.T.T.T.T.T.T.T.T.T.T.T.T.",
"T.f H T.T.T.T.#.u.T.T.T.T.T.T.T.T.T.T.T.T.T.T.T.T.T.T.T.T.T.T.T.T.T.T.T.T.T.T.T.",
"h.8 P T.T.T.T.*.#.T.T.T.T.T.T.T.T.T.T.T.T.T.T.T.T.T.T.T.T.T.T.T.T.T.T.T.T.T.T.T.",
"2.$ ! T.T.T.T.>. .T.T.T.T.T.T.T.T.T.T.T.T.T.T.T.T.T.Z.s.T.T.T.T.T.T.T.T.T.T.T.T.",
"2.$ ( T.T.T.T.#.` T.F.T.T.T.T.T.T.T.T.T.T.T.T.T.T.T.g.2.T.T.T.T.T.T.T.T.T.T.T.T.",
"2.> b h.T.S.T.R ` T.F.T.T.T.T.T.T.T.T.T.T.T.T.T.T.T.s.,.T.T.T.T.T.T.T.S.r.V.T.T.",
"r., 6 e.T.T.V.u >.T.T.T.T.T.T.T.T.T.T.T.T.T.T.T.T.T.a.:.T.T.T.T.T.T.T.Z.} l.T.T.",
"x.N < 1.T.S.d.e p.T.T.T.T.T.T.T.T.T.T.T.T.T.T.T.T.T.s.;.T.T.T.T.T.T.T.:.G T.T.T.",
"T.T 1 t.j.q.p.h S.T.T.T.T.T.T.T.T.T.T.T.T.T.T.T.T.T.d.=.T.T.T.T.T.g.T.S | T.T.T.",
"T.K > e.8.9.g.q d.T.T.T.T.T.T.T.T.T.T.T.T.T.T.T.T.T.h.=.T.T.T.T.T.w.9.S w.T.T.T.",
"T.{ # 5.,.7.T.z r.T.T.T.T.T.T.T.T.T.T.T.T.T.T.T.T.T.g.*.Z.T.T.T.T.2.q.J =.T.T.T.",
"T.q.1 4.:...T.x $.T.T.T.T.T.T.T.T.T.T.T.T.T.T.T.T.T.7.$.Z.T.T.T.T.,.q.` A T.F.T.",
"T.p.7 e.q.G T.Y ` T.F.T.T.T.T.T.T.T.T.T.T.T.T.d.F.T.2.*.m.T.T.F.T.9.-.2.w V.T.T.",
"T.d.g e.j.I T.| Y T.F.T.T.T.T.T.T.T.T.T.T.T.T.9.h.T.,.=.x.T.p.g.q.r.o.w.p x.T.T.",
"T.T.m 5.s.I T.} I T.F.T.T.T.T.T.T.T.T.T.T.T.T.2.a.F.:.-.x.T.>.T.*.=.*.+.A T.T.T.",
"T.T.K e.7._ T.` { T.F.T.T.T.T.T.T.T.T.T.T.T.T.#.s.Z.-.-.x.T.#.l.u.*.:.G } T.F.T.",
"T.T.R q.=.o.T.l $.T.T.T.T.T.T.T.T.T.T.T.T.T.Z.| l.T.=.=.x.T.#.7.p.:.*.d ,.T.T.T.",
"T.T._ :.$.=.T.y p.T.T.T.T.T.T.T.T.T.T.T.T.T.m...l.T.*.%.V.T.=.7.7.,.#.w ` T.F.T.",
"T.T.{ [ :.#.d.q g.T.s.T.T.T.T.T.T.T.T.T.T.T.T.+.d.T.#.o.T.T.+.u.:.w.} D = h.T.T.",
"T.T.O.c 7._ 2.q s.>.:.Z.T.T.T.T.T.T.T.T.p.s.x.$.y.T.=. .T.T...S.#.o.` *.o o.T.T.",
"T.T.$.w u.R 6.% y.*.2.g.T.T.T.T.T.T.T.x.#.q.e.=.w.T.q.$.p.=.#.g.s.d ; 7.A q d.Z.",
"F.T.$.= q.A r.% *.>.:.a.F.T.Z.F.T.a.y.u.| :.=.*.a.T.6.` 7.I *.2.T.r.  6.=.+ =.T.",
"T.T.Q = @.G r.+ G #.| :.T.F.0.y.T.7.;.p.o._ T #.g.T.7.C #.*.#.>.#.R = *.A ; #.a.",
"T.{ ; i ..y u.@ W I y >.Z.T.=.*.u.*.=.6.R h F ` l.T.,.I D } +.I z ; @ y o t _ x.",
"I k @ { D h $.. #.G k v G x. .+.+.v W ,.2 5 / R m.T.2.*.U ..U + 3 + + o h y z #.",
"o + O z : F j   E =.| r y _ _ G } z [ >.& k _ U $.C G ,.p.` + + O + + + + + O . ",
"+ + + o O ; - o j L =.G o :.D _ } D 9.*.V t ' ` 4 X 3 o.I + + + + + + + + + + + ",
"+ + + + + + + + O o o + @ : - w 3 * h s e + V F * + % * . + + + + + + + + + + + ",
"+ + + + + + + + + + + + + O + O O + o o O + O O + + + + + + + + + + + + + + + + "
};
