/* XPM */
static const char *ZXhpdF8xXzcweDcw[] = {
/* columns rows colors chars-per-pixel */
"40 40 165 2 ",
"   c #000001",
".  c #080905",
"X  c #05050A",
"o  c #08070E",
"O  c #0A0A0D",
"+  c #070711",
"@  c #0C0C12",
"#  c #100E14",
"$  c #0F1014",
"%  c #111116",
"&  c #14131D",
"*  c #1A161E",
"=  c #1D1D1F",
"-  c #161522",
";  c #181621",
":  c #161A22",
">  c #1C1B23",
",  c #1C1B29",
"<  c #201F24",
"1  c #211E2A",
"2  c #212123",
"3  c #25242D",
"4  c #28262E",
"5  c #27282D",
"6  c #262532",
"7  c #292533",
"8  c #262932",
"9  c #2B2A34",
"0  c #262639",
"q  c #29273C",
"w  c #262A3B",
"e  c #2D2C3C",
"r  c #302F37",
"t  c #302E3D",
"y  c #2C313B",
"u  c #33323E",
"i  c #2D2D40",
"p  c #322E41",
"a  c #2F3242",
"s  c #343343",
"d  c #393644",
"f  c #363946",
"g  c #3A3946",
"h  c #363549",
"j  c #39374A",
"k  c #363B4A",
"l  c #3A3B4B",
"z  c #3D3E51",
"x  c #413E4D",
"c  c #423D51",
"v  c #374049",
"b  c #3D404F",
"n  c #3D4251",
"m  c #3C4854",
"M  c #43414F",
"N  c #434454",
"B  c #484455",
"V  c #434956",
"C  c #4E4C57",
"Z  c #454C5A",
"A  c #4B4D5C",
"S  c #504C5D",
"D  c #46505C",
"F  c #4B515D",
"G  c #56525B",
"H  c #4C4F60",
"J  c #4C5462",
"K  c #4E5963",
"L  c #505261",
"P  c #505364",
"I  c #575467",
"U  c #525664",
"Y  c #545A66",
"T  c #5B5B66",
"R  c #555368",
"E  c #565769",
"W  c #54576A",
"Q  c #555C6C",
"!  c #545C6B",
"~  c #5E5D6F",
"^  c #5A5D6C",
"/  c #605D6E",
"(  c #625E6B",
")  c #625F70",
"_  c #605D70",
"`  c #55626D",
"'  c #58606D",
"]  c #5A626D",
"[  c #59636D",
"{  c #5A626D",
"}  c #576774",
"|  c #5B6370",
" . c #5E6170",
".. c #5F6273",
"X. c #5F6774",
"o. c #5F6575",
"O. c #5D6573",
"+. c #576870",
"@. c #5C6B72",
"#. c #596B75",
"$. c #5E6874",
"%. c #5D6B76",
"&. c #5D6975",
"*. c #5E6B75",
"=. c #5F6D78",
"-. c #5D6E78",
";. c #5E6F79",
":. c #5F6D78",
">. c #5E707A",
",. c #5E727B",
"<. c #5E707A",
"1. c #636166",
"2. c #606372",
"3. c #616473",
"4. c #626375",
"5. c #626574",
"6. c #606674",
"7. c #616777",
"8. c #646675",
"9. c #606875",
"0. c #636977",
"q. c #616B77",
"w. c #636A76",
"e. c #616D79",
"r. c #636D79",
"t. c #636F7B",
"y. c #646E7A",
"u. c #666E7B",
"i. c #646D79",
"p. c #696D7B",
"a. c #647177",
"s. c #637079",
"d. c #62707B",
"f. c #62737B",
"g. c #62727F",
"h. c #65717D",
"j. c #67717D",
"k. c #65737E",
"l. c #65767D",
"z. c #64727C",
"x. c #69727E",
"c. c #717076",
"v. c #73767D",
"b. c #657680",
"n. c #6B7380",
"m. c #687180",
"M. c #7E7B82",
"N. c #7E8387",
"B. c #78838C",
"V. c #7E8691",
"C. c #878E96",
"Z. c #918E95",
"A. c #829093",
"S. c #84919A",
"D. c #9C9DA2",
"F. c #ABADB4",
"G. c #AAB3BC",
"H. c #BFBFC1",
"J. c #B8BECA",
"K. c #C4C4C9",
"L. c #C1CCD2",
"P. c #CECDD5",
"I. c #C8D5DB",
"U. c #CEDBE3",
"Y. c #F9FFFF",
/* pixels */
"                                                                                ",
"                                                                                ",
"                                                                                ",
"                                                                                ",
"                                                                                ",
"                              X @ O @ @ $ @ $ % O                               ",
"                            @ > A x d d d d d g =                               ",
"                          o > u R z i q i i s j 2                               ",
"              .         X 6 t t 6 d V N B d p d >                 .             ",
"    X                 X 4 d t 0 d J o.3./ x e d <                               ",
"                        r g d s J 9.j.| V s 0 d >       .       O o O + o o @   ",
"                X     o t t j I %.e.j.[ y 0 s s 1     .       X u u s u u d d * ",
"                  4 d u s s j ~ j.e.u.2.f t s s u 4         X u u e e e e u d - ",
"            O 9 e d u d e w s 5.j.e.5. .A s 0 t t e 4 5 X 2 e u 0 d N N d 0 d > ",
"        @ 4 9 t t s s h s k n [ >.e.9.9.%.D f d e s j s , s N e e A 4.W N e s & ",
"    o > 9 d p s h e h W o.9.[ s.>.=.u.9.s.%.| L d e i e j e s e A 5. .z s s x - ",
"    + g s u e e v K K @.l.f.=.z.=.e.u.e.j.j.=.#.Q P c p p i i J } m._ d p s d * ",
"  @ 9 t d s V Z F B.G.Y V l.j.:.u.u.9.o.9.e.e.z.j.r.I l t e d U g.[ N d t u *   ",
"# 4 S _ 6 n [ m.@.V.J.A k u.9.j.8.p.0.8.8.r.u.j.>.j.u.U l f N ^ b.[ N d e u %   ",
"* u s l n %.e.z.:.q.p.0.0.u.x.%.5.5.p.p.p.e.e.e.:.:.j.u.Y U [ u.z.u.[ d e d 4 O ",
"> s a z [ @.f.>.l.:.o.x.9.e.e.z.p.9.9.9.%.%.>.s.l.:.e.j.9.9.p.0.o.y.9.k i e d > ",
"- j 0 l F [ :.+.A.I.U.S.O.` V ` j.%.e.e.:.:.s.>.e.e.e.j.u.p. .A f J r.^ N s d & ",
"- d d 6 u v.F.C.D.Y.L.B.` m K 9.! ! %.j.j.e.s.e.9.u.u.u.9.U B x M j F A h s d : ",
"; d s 7 G Z.K.P.H.K.v.:.J V ! p.Z Z ` u.e.9.u.u.p.p.Q ! Z i e c ( 8 y a s t u : ",
"@ 1 2 M.D.c.v.F.K.N.a.#.g.! n ! ^ H V 9.j.0.8.T / ~ x t d s e e e s p j s s g - ",
"    X 1.G C d N T 0.u.e.=.e.^ l l F 9.u.o.3.A l d j s e s s s d 6 7 3 7 3 2 8 & ",
"    .   # e p 0 s N k N n F w.T Y A N b n Z j i p e s s 0 9 6 4                 ",
"  . .   > d 9 s i a i e e f F U U n w e s e p s s e d 6 o     X               . ",
"          X + u y u g 9 d t 0 w w a s p u t u f > X X X   .                     ",
"X             O O X X o u u d h h d j > + @ X X o     .                         ",
"                        4 9 y 4 9 4 u %                     .                   ",
"                                    X                                           ",
"                                                                                ",
"                                                                                ",
"                                                                                ",
"                                                                                ",
"                                                                                ",
"                                                                                ",
"                                                                                ",
"                                                                                "
};
