/* XPM */
static char *squid_1_70x701711725637[] = {
/* columns rows colors chars-per-pixel */
"40 40 225 2 ",
"   c #474340",
".  c #695763",
"X  c #9F0032",
"o  c #9C1A3C",
"O  c #A5193C",
"+  c #AB1837",
"@  c #B81B3A",
"#  c #AE0838",
"$  c #9E273A",
"%  c #B62739",
"&  c #BD313E",
"*  c #C71A3E",
"=  c #C2223E",
"-  c #D3203D",
";  c #AB1B42",
":  c #AA1946",
">  c #B71C48",
",  c #9E2D4B",
"<  c #AB2044",
"1  c #AD234C",
"2  c #A82B47",
"3  c #B32344",
"4  c #BB2546",
"5  c #B1244C",
"6  c #BC234D",
"7  c #B32C49",
"8  c #BE2D4E",
"9  c #B72C44",
"0  c #A93544",
"q  c #B33244",
"w  c #B4364B",
"e  c #BA324D",
"r  c #BD394B",
"t  c #B93748",
"y  c #AC2E54",
"u  c #AA2750",
"i  c #BA2552",
"p  c #B72A54",
"a  c #BA2E53",
"s  c #AE3C55",
"d  c #BC3353",
"f  c #B63A57",
"g  c #C71A47",
"h  c #C21241",
"j  c #D91F4E",
"k  c #CC254B",
"l  c #C32F4A",
"z  c #CD2B4D",
"x  c #C42447",
"c  c #DF2F46",
"v  c #C73B49",
"b  c #D3344B",
"n  c #D9344D",
"m  c #D5364B",
"M  c #CC2A51",
"N  c #C52955",
"B  c #D42D53",
"V  c #DD2C51",
"C  c #C43454",
"Z  c #CB3452",
"A  c #C13B59",
"S  c #C63758",
"D  c #DD3155",
"F  c #D33D54",
"G  c #D53956",
"H  c #E5334C",
"J  c #E43C54",
"K  c #E73754",
"L  c #F13759",
"P  c #C63764",
"I  c #C82963",
"U  c #E63D62",
"Y  c #B74358",
"T  c #BE4D6B",
"R  c #B85969",
"E  c #BB6579",
"W  c #BE6A6A",
"Q  c #CA4153",
"!  c #C6475C",
"~  c #C74859",
"^  c #D34659",
"/  c #D8505C",
"(  c #D5424C",
")  c #E6445B",
"_  c #E9435D",
"`  c #EC4C5D",
"'  c #E84558",
"]  c #F14357",
"[  c #F4435C",
"{  c #FD455A",
"}  c #F34B5C",
"|  c #FA4B5D",
" . c #EC525E",
".. c #E85458",
"X. c #F3535D",
"o. c #F8585E",
"O. c #D44960",
"+. c #C65468",
"@. c #DC576A",
"#. c #CC5C73",
"$. c #CB5A7C",
"%. c #C35572",
"&. c #C54E64",
"*. c #E54263",
"=. c #EB4F63",
"-. c #E74867",
";. c #F34B62",
":. c #FD4C64",
">. c #FF4E69",
",. c #F64565",
"<. c #EC5267",
"1. c #F45363",
"2. c #FC5464",
"3. c #F3546A",
"4. c #FD556B",
"5. c #FE5866",
"6. c #EC5874",
"7. c #FF5572",
"8. c #F65D77",
"9. c #C8687C",
"0. c #D2687E",
"q. c #CF6C6C",
"w. c #EA606D",
"e. c #EF6E72",
"r. c #E76974",
"t. c #F96B74",
"y. c #EA7E7E",
"u. c #F76C72",
"i. c #E48B7D",
"p. c #CB7585",
"a. c #D3788A",
"s. c #D77E92",
"d. c #FB7D81",
"f. c #CC8293",
"g. c #D38895",
"h. c #CB9298",
"j. c #E88782",
"k. c #FF8586",
"l. c #FE858C",
"z. c #FE8B8C",
"x. c #F48582",
"c. c #EC928A",
"v. c #FF8892",
"b. c #EC9699",
"n. c #FE929F",
"m. c #EE8D90",
"M. c #D4A19E",
"N. c #F0B39E",
"B. c #F2AA9B",
"V. c #D48EA2",
"C. c #D98EA5",
"Z. c #DC9AA5",
"A. c #D79CAB",
"S. c #D895A6",
"D. c #D198B8",
"F. c #FF85A0",
"G. c #E697AB",
"H. c #E29FB1",
"J. c #D5A7AC",
"K. c #DCA6B3",
"L. c #DDAAB7",
"P. c #D9A8B7",
"I. c #DCB6BA",
"U. c #E0A4A7",
"Y. c #FEBBAA",
"T. c #F6BAA6",
"R. c #E4ADB9",
"E. c #E6ABB6",
"W. c #F0A3B3",
"Q. c #E9B4B6",
"!. c #E3B4BD",
"~. c #FEBFB0",
"^. c #F1C8AF",
"/. c #FCC6AB",
"(. c #F5C4B7",
"). c #FEC3B3",
"_. c #FBCCB3",
"`. c #FDC7BB",
"'. c #F9D5BB",
"]. c #DEBBC1",
"[. c #F7AEC1",
"{. c #E7B3C0",
"}. c #F3B8C4",
"|. c #E7BED0",
" X c #B8C7C4",
".X c #D1D6D0",
"XX c #CAC8C9",
"oX c #E4CACF",
"OX c #E8C4C7",
"+X c #FDCDC8",
"@X c #E7D4C2",
"#X c #FFD2C4",
"$X c #F3D2C9",
"%X c #FDD4C9",
"&X c #FBDDCB",
"*X c #F5D8C8",
"=X c #E3DEDA",
"-X c #FAD9D7",
";X c #F2C7D8",
":X c #F9E2C8",
">X c #EFE0DB",
",X c #FFE3DA",
"<X c #FBE8D6",
"1X c #EDDDE0",
"2X c #DEE2E1",
"3X c #EDEFEC",
"4X c #FCEEE4",
"5X c #FCE4E9",
"6X c #F5E7E8",
"7X c #FBF5E4",
"8X c #F4F3EE",
"9X c #FFF5ED",
"0X c #F9FCED",
"qX c #EDFCF5",
"wX c #EDFCFC",
"eX c #F4F6F4",
"rX c #FCF5F5",
"tX c #F4FBF6",
"yX c #FCFCF4",
"uX c #F6F7F9",
"iX c #FEF5FB",
"pX c #F5FEFC",
"aX c #FEFEFE",
"sX c #F2EFF3",
"dX c #A1A2A6",
/* pixels */
"aXaXaXaXaXaXaXaXaXaXaXaXaXaXaXaXaXaXaXaXaXaXaXaXaXtXiXpXaXpXaXpXpXiXaX<XY.Y./.(.",
"aXaXaXaXaXaXaXaXaXaXaXaXaXaXaXaXaXaXaXaXaXaXaXaXyXaXpXwXpXiXyXyX-X).(.^._.N.b ! ",
"aXaXaXaXaXaXaXaXaXaXaXaXaXaXaXaXaXaXaXaXaXiXiXaXaXiXaXaXyX-X(.'._././.'.B.G Z 9 ",
"aXaXaXaXaXaXaXaXaXaXaXaXaXaXaXaXaXaXaXaXaXaXpXaXuXaXtX#X'.`._.`.c.t.u.t.t.g l > ",
"aXaXaXaXaXaXaXaXaXaXaXaXaXaXaXaXaXaXaXiXaXaXaX9XtX+X'.^._.k.u.y.8.} :.,.z 5 A Q.",
"aXaXaXaXaXaXaXaXaXaXaXaXaXaXaXaXaXaXiXpXpXtX7X-X:XY.(.l.d.1.{ { 2.{ ` H M 5 P aX",
"aXaXaXaXaXaXaXaXaXaXaXaXaXaXaXaXyXaXaXpXaX7X%X/.N.z.l.:.` ;.5...o.1.m l 4 8 E.tX",
"aXaXaXaXaXaXaXaXaXaXaXaXaXaXaXaXaXyXaXaX8X*XT.c.z.} ` >.2.3.:.3.' L M a d E.iXpX",
"aXaXaXaXaXaXaXaXaXaXaXaXaXaXaXaXiXaXpX9X%XT.x.] | X.5.3.X.| 3.=.D V e : $.iXqXaX",
"aXaXaXaXaXaXaXaXaXuXaXaXaXaXtXaXaXtX9X$XT.k.] 4.5.` :.| :.5.;.H B 7 ; S V.aXrXpX",
"aXaXaXaXaXaXaXaXaXaXaXaXeXiXaXiXiX0X#X).j.[ 4.1.X.7.` 2.:.` H z a i p C.iXuXiXaX",
"aXaXaXaXaXaXaXaXyXaXiXaXaXaXaXaXaX$X^.x.} :.2.1.1.>.1.1.4.n D y : N C.aXpXpXaXpX",
"aXaXaXaXaXaXaXaXaXaXaXaXpXaXtXaXpX$XY.d.{ 2.o. .:.} ;.=.b B 6 i i S.tXtXaXtXaXaX",
"aXaXaXaXaXaXaXaXaXaXaXaXpXaXaXrXrX<Xq.% ' 2...3.<.} x D b 4 I : S.pXaXaXyXaXpXaX",
"aXaXaXaXaXaXaXaXaXaXpXeX8XaX9X9XyX:Xq.k L X.4.U q ,.N ; C g 1 K.aXqXiXpXaXaXpXiX",
"aXaXaXaXaXaXaXaXiXtXaX2X  =X$X$X-Xq.% x *.5.` 1 M y 1 u N > M.yXiXpXpXaXaXaXpXaX",
"pXaXaXaXaXpXiXpXaXaXaX3X XqX4X6.( m 7 B H d a z u 1 1 : 1 R.qXpXaXpXaXaXaXaXaXaX",
"iXiXaXyXpXpXaXyXaXqX0X+XF.7Xn.=.| S w l 4 7 8 ; : , 5 > P.rXaXaXiXaXaXaXaXaXaXaX",
"aXaXiXiXyX,X&X<X,X<X:Xu.:.l.v v Q e F G a O f |.C.: 5 H.pXaXuXiXaXaXaXaXaXaXaXaX",
"0XqXaX5X-X:Xc.r.e.e.w.b S b F *.9 0 U M : R I.iXiXS.H.aXaXpXaXaXaXaXaXaXaXaXaXaX",
"pXaX7X#Xc.c.@.h 4 4 6 G Q ^ 4._ S r # $.&.9.pXsXrXpXaXiXyXpXaXaXaXaXaXaXaXaXaXaX",
"aX4Xi.i.~ x ^ ( ^ F / 4.2.4.) w 0 n $.5X-XZ.pXaXaXtXpXiXpXiXaXrXaXaXaXaXaXaXaXaX",
"7Xb.W w 8 ! ) 1.J J ] | ..( % w b U G.eX.XXXiXaXaXaXaXpXpXaXaXaXaXaXaXaXaXaXaXaX",
"T.#.OX0.[ X.[ ! R $.R @.9 r r 2 =.Z X R.dX. aXtXaXaXaXpXiXaXaXwXaXaXaXaXaXaXaXaX",
"OX>X&.J ,.@.s D.pXrXQ.@ ! *.v 7 -.Z d R.aXiXaXaXaXaXaXaXaXaXaXaXaXaXaXaXaXaXaXaX",
"yXA -.w 2 I.rXrXaXE.+ _ -.t  .S Z 3 W.aXqXaXtXaXaXaXaXaXaXaXaXaXaXaXaXaXaXaXaXaX",
"3X/ $ > {.pXiXyXJ.8 F ;.e :.c 9 8 ; ].pXeXaXaXaXaXaXaXaXaXaXaXaXaXaXaXaXaXaXaXaX",
"f 6.9 I.pXiXpXU.x n :.1.0 m & =.d 5 L.aXiXaXiXaXaXaXaXaXaXaXaXaXaXaXaXaXaXaXaXaX",
"% g OXaXwXiXZ.y Z :.` t <.x ) 4.C O [.iXaXaXyXaXaXaXaXaXaXaXaXaXaXaXaXaXaXaXaXaX",
"& |.aXqXiXZ.> p.J.m  .< G @X&.;.Z : Q.pXqXaXaXaXaXaXaXaXaXaXaXaXaXaXaXaXaXaXaXaX",
"7 6XiXpXyX0.R aX}.% V p }.p.$ ;.a > !.pXiXpXaXaXaXaXaXaXaXaXaXaXaXaXaXaXaXaXaXaX",
"L.3XaXiXZ.g.6XoX$.F A oX5X> J./ , # L.aXiXaXaXaXaXaXaXaXaXaXaXaXaXaXaXaXaXaXaXaX",
"iXaXpXaXP.;XiXV.g | R aXeXE.M.I g s.=XpXiXaXaXaXaXaXaXaXaXaXaXaXaXaXaXaXaXaXaXaX",
"pXpXpXqXaXaXaXJ.l G Y aXyXJ.M 1 : }.aXyXaXaXpXaXaXaXaXaXaXaXaXaXaXaXaXaXaXaXaXaX",
"pXaXrXaXuXuXiXS.@ ~ G.aXG.9 z < E -XaXuXiXpXaXaXaXaXaXaXaXaXaXaXaXaXaXaXaXaXaXaX",
"iXrXaXiXaXaXaXK.+ 9.yXg.o k 4 %.5XiXaXaXaXaXaXiXaXaXaXaXaXaXaXaXaXaXaXaXaXaXaXaX",
"aXaXpXaXiXqX6Xg.@ 9.6XT p.%.9.3XaXpXpXpXaXpXaXaXaXaXaXaXaXaXaXaXaXaXaXaXaXaXaXaX",
"tXaXpXaXiXaXf.h z g.aXyXiXaXuXyXpXpXaXaXaXaXaXaXaXaXaXaXaXaXaXaXaXaXaXaXaXaXaXaX",
"aXiXpXiXaXaXg.< h.aXiXpX8XaXpXaXaXiXaXaXaXaXaXaXaXaXaXaXaXaXaXaXaXaXaXaXaXaXaXaX",
"aXaXaXaXtXrXg.p.iXwXiXaXaXpXiXyXaXiXaXaXaXpXaXaXaXaXaXaXaXaXaXaXaXaXaXaXaXaXaXaX"
};
